<?xml version="1.0" encoding="UTF-8" standalone="no"?>
<!-- Uploaded to: SVG Repo, www.svgrepo.com, Generator: SVG Repo Mixer Tools -->

<svg
   width="800px"
   height="800px"
   viewBox="0 0 16.002 16.002"
   version="1.1"
   id="svg3"
   sodipodi:docname="network-disconnected.svg"
   inkscape:version="1.4 (e7c3feb1, 2024-10-09)"
   xmlns:inkscape="http://www.inkscape.org/namespaces/inkscape"
   xmlns:sodipodi="http://sodipodi.sourceforge.net/DTD/sodipodi-0.dtd"
   xmlns="http://www.w3.org/2000/svg"
   xmlns:svg="http://www.w3.org/2000/svg">
  <defs
     id="defs3" />
  <sodipodi:namedview
     id="namedview3"
     pagecolor="#ffffff"
     bordercolor="#000000"
     borderopacity="0.25"
     inkscape:showpageshadow="2"
     inkscape:pageopacity="0.0"
     inkscape:pagecheckerboard="0"
     inkscape:deskcolor="#d1d1d1"
     inkscape:zoom="0.33236653"
     inkscape:cx="995.88849"
     inkscape:cy="756.69473"
     inkscape:window-width="1512"
     inkscape:window-height="916"
     inkscape:window-x="0"
     inkscape:window-y="38"
     inkscape:window-maximized="1"
     inkscape:current-layer="g3" />
  <g
     color="#000000"
     fill="gray"
     font-family="sans-serif"
     font-weight="400"
     white-space="normal"
     id="g3"
     style="fill:#000000">
    <path
       d="m 10.923274,9.7933491 -0.707,0.7069999 0.353,0.354 4,4 0.354,0.353 0.707,-0.707 -0.354,-0.354 -4,-4 z"
       fill-rule="evenodd"
       overflow="visible"
       style="line-height:normal;font-variant-ligatures:normal;font-variant-position:normal;font-variant-caps:normal;font-variant-numeric:normal;font-variant-alternates:normal;font-feature-settings:normal;text-indent:0;text-align:start;text-decoration-line:none;text-decoration-style:solid;text-decoration-color:#000000;text-transform:none;text-orientation:mixed;shape-padding:0;isolation:auto;mix-blend-mode:normal;fill:#000000"
       id="path1" />
    <path
       d="m 14.923274,9.7933491 -0.353,0.3529999 -4,4 -0.354,0.354 0.707,0.707 0.354,-0.353 4,-4 0.353,-0.354 z"
       fill-rule="evenodd"
       overflow="visible"
       style="line-height:normal;font-variant-ligatures:normal;font-variant-position:normal;font-variant-caps:normal;font-variant-numeric:normal;font-variant-alternates:normal;font-feature-settings:normal;text-indent:0;text-align:start;text-decoration-line:none;text-decoration-style:solid;text-decoration-color:#000000;text-transform:none;text-orientation:mixed;shape-padding:0;isolation:auto;mix-blend-mode:normal;fill:#000000"
       id="path2" />
    <path
       d="m 6.8492744,1.0003491 c -0.45,0.005 -0.778,-0.012 -1.047,0.137 a 0.676,0.676 0 0 0 -0.3,0.357 c -0.06,0.157 -0.08,0.343 -0.08,0.578 v 1.858 c 0,0.235 0.021,0.42 0.08,0.576 a 0.677,0.677 0 0 0 0.3,0.357 c 0.269,0.148 0.597,0.132 1.047,0.137 h 0.572 v 2 h -3.5 c -0.666,0 -1.137,0.408 -1.322,0.777 -0.185,0.37 -0.178,0.723 -0.178,0.723 v 1.4999999 h -0.572 c -0.45,0.005 -0.778,-0.012 -1.04700003,0.137 a 0.676,0.676 0 0 0 -0.3,0.357 c -0.06,0.157 -0.08,0.343 -0.08,0.578 v 1.858 c 0,0.235 0.021,0.42 0.08,0.576 a 0.677,0.677 0 0 0 0.3,0.357 c 0.26900003,0.148 0.59700003,0.132 1.04700003,0.137 h 2.144 c 0.45,-0.005 0.779,0.012 1.047,-0.137 0.135,-0.074 0.24,-0.2 0.3,-0.357 0.058,-0.157 0.08,-0.341 0.08,-0.576 v -1.858 c 0,-0.235 -0.022,-0.421 -0.08,-0.578 a 0.673,0.673 0 0 0 -0.3,-0.357 c -0.268,-0.15 -0.597,-0.132 -1.046,-0.137 h -0.573 V 8.5003491 c 0,0 0.01,-0.145 0.072,-0.275 0.065,-0.131 0.094,-0.225 0.428,-0.225 h 7.9999996 c 0.333,0 0.362,0.094 0.428,0.225 a 0.78,0.78 0 0 1 0.072,0.275 v 0.5 h 1 v -0.5 c 0,0 0.01,-0.353 -0.178,-0.723 a 1.485,1.485 0 0 0 -1.322,-0.777 H 8.4212744 v -2 h 0.572 c 0.45,-0.005 0.778,0.012 1.0469996,-0.137 0.134,-0.074 0.24,-0.2 0.299,-0.357 0.059,-0.157 0.08,-0.341 0.08,-0.576 v -1.858 c 0,-0.235 -0.021,-0.421 -0.08,-0.578 a 0.673,0.673 0 0 0 -0.3,-0.357 c -0.2679996,-0.15 -0.5969996,-0.132 -1.0459996,-0.137 z m -0.426,1 h 3 v 2 h -3 z m -5,8.9999999 h 3 v 2 h -3 z"
       opacity=".5"
       overflow="visible"
       style="line-height:normal;font-variant-ligatures:normal;font-variant-position:normal;font-variant-caps:normal;font-variant-numeric:normal;font-variant-alternates:normal;font-feature-settings:normal;text-indent:0;text-align:start;text-decoration-line:none;text-decoration-style:solid;text-decoration-color:#000000;text-transform:none;text-orientation:mixed;shape-padding:0;opacity:1;isolation:auto;mix-blend-mode:normal;fill:#000000;marker:none"
       id="path3" />
  </g>
</svg>
