<?xml version="1.0" encoding="UTF-8" standalone="no"?>
<!DOCTYPE svg PUBLIC "-//W3C//DTD SVG 1.1//EN" "http://www.w3.org/Graphics/SVG/1.1/DTD/svg11.dtd">
<svg width="100%" height="100%" viewBox="0 0 1000 1000" version="1.1" xmlns="http://www.w3.org/2000/svg" xmlns:xlink="http://www.w3.org/1999/xlink" xml:space="preserve" xmlns:serif="http://www.serif.com/" style="fill-rule:evenodd;clip-rule:evenodd;stroke-linejoin:round;stroke-miterlimit:2;">
    <g id="Background" transform="matrix(1,0,0,1,51,53)">
        <path d="M388.989,116.043C392.901,120.294 437.377,168.625 437.569,169.477C437.78,170.414 437.796,170.73 418.609,191.601C336.822,280.568 335.919,289.905 305.513,294.585C280.943,298.367 254.024,279.819 257.731,275.687C262.68,270.17 352.757,171.742 353.215,170.421C353.785,168.774 352.624,169.029 302.062,112.908C280.02,88.442 279.683,88.829 257.724,64.32C254.488,60.708 272.79,50.14 281.591,47.836C324.289,36.658 343.076,65.883 363.721,88.3C378.718,104.586 381.318,107.429 388.989,116.043Z" style="fill-opacity:1;"/>
        <path d="M134.989,607.043C138.901,611.294 183.377,659.625 183.569,660.477C183.78,661.414 183.796,661.73 164.609,682.601C82.822,771.568 81.919,780.905 51.513,785.585C26.943,789.367 0.024,770.819 3.731,766.687C8.68,761.17 98.757,662.742 99.215,661.421C99.785,659.774 98.624,660.029 48.062,603.908C26.02,579.442 25.683,579.829 3.724,555.32C0.488,551.708 18.79,541.14 27.591,538.836C70.289,527.658 89.076,556.883 109.721,579.3C124.718,595.586 127.318,598.429 134.989,607.043Z" style="fill-opacity:1;"/>
        <path d="M637.989,607.043C641.901,611.294 686.377,659.625 686.569,660.477C686.78,661.414 686.796,661.73 667.609,682.601C585.822,771.568 584.919,780.905 554.513,785.585C529.943,789.367 503.024,770.819 506.731,766.687C511.68,761.17 601.757,662.742 602.215,661.421C602.785,659.774 601.624,660.029 551.062,603.908C529.02,579.442 528.683,579.829 506.724,555.32C503.488,551.708 521.79,541.14 530.591,538.836C573.289,527.658 592.076,556.883 612.721,579.3C627.718,595.586 630.318,598.429 637.989,607.043Z" style="fill-opacity:1;"/>
        <path d="M509.011,116.043C516.682,107.428 519.282,104.585 534.279,88.3C554.924,65.883 573.711,36.658 616.409,47.836C625.21,50.14 643.512,60.708 640.276,64.32C618.317,88.829 617.98,88.442 595.938,112.908C545.376,169.029 544.215,168.774 544.785,170.421C545.243,171.742 635.32,270.17 640.269,275.687C643.976,279.819 617.057,298.367 592.487,294.585C562.081,289.905 561.178,280.568 479.391,191.601C460.204,170.73 460.22,170.414 460.431,169.477C460.623,168.625 505.099,120.294 509.011,116.043Z" style="fill-opacity:1;"/>
        <path d="M255.011,607.043C262.682,598.428 265.282,595.585 280.279,579.3C300.924,556.883 319.711,527.658 362.409,538.836C371.21,541.14 389.512,551.708 386.276,555.32C364.317,579.829 363.98,579.442 341.938,603.908C291.376,660.029 290.215,659.774 290.785,661.421C291.243,662.742 381.32,761.17 386.269,766.687C389.976,770.819 363.057,789.367 338.487,785.585C308.081,780.905 307.178,771.568 225.391,682.601C206.204,661.73 206.22,661.414 206.431,660.477C206.623,659.625 251.099,611.294 255.011,607.043Z" style="fill-opacity:1;"/>
        <path d="M758.011,607.043C765.682,598.428 768.282,595.585 783.279,579.3C803.924,556.883 822.711,527.658 865.409,538.836C874.21,541.14 892.512,551.708 889.276,555.32C867.317,579.829 866.98,579.442 844.938,603.908C794.376,660.029 793.215,659.774 793.785,661.421C794.243,662.742 884.32,761.17 889.269,766.687C892.976,770.819 866.057,789.367 841.487,785.585C811.081,780.905 810.178,771.568 728.391,682.601C709.204,661.73 709.22,661.414 709.431,660.477C709.623,659.625 754.099,611.294 758.011,607.043Z" style="fill-opacity:1;"/>
        <path d="M401.009,318.048C361.803,358.077 321.653,323.621 322.281,320.435C322.468,319.486 417.571,215.448 426.512,205.51C428.214,203.619 447.29,182.415 447.862,181.931C449.24,180.767 449.749,181.622 470.089,203.866C478.581,213.154 575.455,319.098 575.719,320.435C577.028,327.073 531.444,353.075 500.581,321.419C493.29,313.941 450.413,266.409 449.612,266.21C447.313,265.638 440.93,274.79 411.93,305.889C409.973,307.988 401.879,317.072 401.009,318.048Z" style="fill-opacity:1;"/>
        <path d="M147.009,809.048C107.803,849.077 67.653,814.621 68.281,811.435C68.468,810.486 163.571,706.448 172.512,696.51C174.214,694.619 193.29,673.415 193.862,672.931C195.24,671.767 195.749,672.622 216.089,694.866C224.581,704.154 321.455,810.098 321.719,811.435C323.028,818.073 277.444,844.075 246.581,812.419C239.29,804.941 196.413,757.409 195.612,757.21C193.313,756.638 186.93,765.79 157.93,796.889C155.973,798.988 147.879,808.072 147.009,809.048Z" style="fill-opacity:1;"/>
        <path d="M650.009,809.048C610.803,849.077 570.653,814.621 571.281,811.435C571.468,810.486 666.571,706.448 675.512,696.51C677.214,694.619 696.29,673.415 696.862,672.931C698.24,671.767 698.749,672.622 719.089,694.866C727.581,704.154 824.455,810.098 824.719,811.435C826.028,818.073 780.444,844.075 749.581,812.419C742.29,804.941 699.413,757.409 698.612,757.21C696.313,756.638 689.93,765.79 660.93,796.889C658.973,798.988 650.879,808.072 650.009,809.048Z" style="fill-opacity:1;"/>
        <path d="M496.991,21.952C500.199,18.809 509.168,8.277 526.456,4.314C529.86,3.534 549.187,-0.896 569.274,12.821C577.033,18.119 575.958,19.697 574.382,21.394C570.153,25.952 505.27,97.529 494.825,108.796C450.889,156.189 450.453,161.242 446.94,157.088C444.078,153.702 323.08,20.87 322.701,20.351C320.025,16.689 335.79,8.361 339.649,6.887C380.023,-8.537 403.91,25.481 408.506,30.494C444.972,70.266 447.807,74.244 449.613,73.786C451.154,73.395 493.254,26.146 496.991,21.952Z" style="fill-opacity:1;"/>
        <path d="M242.991,512.952C246.199,509.809 255.168,499.277 272.456,495.314C275.86,494.534 295.187,490.104 315.274,503.821C323.033,509.119 321.958,510.697 320.382,512.394C316.153,516.952 251.27,588.529 240.825,599.796C196.889,647.189 196.453,652.242 192.94,648.088C190.078,644.702 69.08,511.87 68.701,511.351C66.025,507.689 81.79,499.361 85.649,497.887C126.023,482.463 149.91,516.481 154.506,521.494C190.972,561.266 193.807,565.244 195.613,564.786C197.154,564.395 239.254,517.146 242.991,512.952Z" style="fill-opacity:1;"/>
        <path d="M745.991,512.952C749.199,509.809 758.168,499.277 775.456,495.314C778.86,494.534 798.187,490.104 818.274,503.821C826.033,509.119 824.958,510.697 823.382,512.394C819.153,516.952 754.27,588.529 743.825,599.796C699.889,647.189 699.453,652.242 695.94,648.088C693.078,644.702 572.08,511.87 571.701,511.351C569.025,507.689 584.79,499.361 588.649,497.887C629.023,482.463 652.91,516.481 657.506,521.494C693.972,561.266 696.807,565.244 698.613,564.786C700.154,564.395 742.254,517.146 745.991,512.952Z" style="fill-opacity:1;"/>
        <path d="M539.011,672.124C537.31,672.888 537.251,672.805 368.5,672.805C366.706,672.805 358.674,673.971 358.629,670.493C358.369,650.661 357.945,650.155 359.481,649.465C360.482,649.016 537.52,649.017 538.519,649.465C540.033,650.145 539.482,669.993 539.011,672.124Z"/>
        <path d="M269.999,362.947C279.915,352.072 291.483,338.905 292.691,337.696C293.928,336.458 295.077,336.071 310.272,350.704C310.422,350.848 311.491,351.878 310.255,353.312C283.239,384.648 240.378,431.522 234.224,438.252C212.05,462.501 192.587,486.071 190.444,485.75C188.191,485.413 176.016,473.337 174.841,472.172C172.493,469.844 175.285,469.258 269.999,362.947Z"/>
        <path d="M685,461.95C667.701,442.962 619.132,388.854 594.431,361.562C587.408,353.803 584.618,352.697 588.917,348.963C601.595,337.953 601.556,337.233 602.648,336.94C604.594,336.417 626.743,362.71 643.792,381.237C643.882,381.334 722.966,468.918 723.35,469.578C724.221,471.078 723.721,471.512 708.155,485.044C706.336,486.625 704.26,483.467 685,461.95Z" style="fill-opacity:1;"/>
    </g>
</svg>
